<mxfile host="Electron" agent="Mozilla/5.0 (Windows NT 10.0; Win64; x64) AppleWebKit/537.36 (KHTML, like Gecko) draw.io/24.7.5 Chrome/126.0.6478.183 Electron/31.3.0 Safari/537.36" version="24.7.5">
  <diagram id="C5RBs43oDa-KdzZeNtuy" name="Page-1">
    <mxGraphModel dx="1004" dy="745" grid="1" gridSize="10" guides="1" tooltips="1" connect="1" arrows="1" fold="1" page="1" pageScale="1" pageWidth="827" pageHeight="1169" math="0" shadow="0">
      <root>
        <mxCell id="WIyWlLk6GJQsqaUBKTNV-0" />
        <mxCell id="WIyWlLk6GJQsqaUBKTNV-1" parent="WIyWlLk6GJQsqaUBKTNV-0" />
        <mxCell id="Vp3_eGZHVUZD8heVCFpJ-5" style="edgeStyle=orthogonalEdgeStyle;rounded=0;orthogonalLoop=1;jettySize=auto;html=1;exitX=1;exitY=0.5;exitDx=0;exitDy=0;entryX=0;entryY=0.5;entryDx=0;entryDy=0;" edge="1" parent="WIyWlLk6GJQsqaUBKTNV-1" source="Vp3_eGZHVUZD8heVCFpJ-0" target="Vp3_eGZHVUZD8heVCFpJ-1">
          <mxGeometry relative="1" as="geometry" />
        </mxCell>
        <mxCell id="Vp3_eGZHVUZD8heVCFpJ-0" value="&lt;font style=&quot;font-size: 16px;&quot;&gt;浏览页面&lt;/font&gt;" style="rounded=1;whiteSpace=wrap;html=1;" vertex="1" parent="WIyWlLk6GJQsqaUBKTNV-1">
          <mxGeometry x="190" y="160" width="120" height="60" as="geometry" />
        </mxCell>
        <mxCell id="Vp3_eGZHVUZD8heVCFpJ-9" style="edgeStyle=orthogonalEdgeStyle;rounded=0;orthogonalLoop=1;jettySize=auto;html=1;exitX=1;exitY=0.5;exitDx=0;exitDy=0;entryX=0;entryY=0.5;entryDx=0;entryDy=0;" edge="1" parent="WIyWlLk6GJQsqaUBKTNV-1" source="Vp3_eGZHVUZD8heVCFpJ-1" target="Vp3_eGZHVUZD8heVCFpJ-3">
          <mxGeometry relative="1" as="geometry" />
        </mxCell>
        <mxCell id="Vp3_eGZHVUZD8heVCFpJ-1" value="&lt;font style=&quot;font-size: 16px;&quot;&gt;悬浮图标&lt;/font&gt;" style="rounded=1;whiteSpace=wrap;html=1;" vertex="1" parent="WIyWlLk6GJQsqaUBKTNV-1">
          <mxGeometry x="400" y="60" width="120" height="60" as="geometry" />
        </mxCell>
        <mxCell id="Vp3_eGZHVUZD8heVCFpJ-10" style="edgeStyle=orthogonalEdgeStyle;rounded=0;orthogonalLoop=1;jettySize=auto;html=1;exitX=1;exitY=0.5;exitDx=0;exitDy=0;entryX=0;entryY=0.5;entryDx=0;entryDy=0;" edge="1" parent="WIyWlLk6GJQsqaUBKTNV-1" source="Vp3_eGZHVUZD8heVCFpJ-2" target="Vp3_eGZHVUZD8heVCFpJ-4">
          <mxGeometry relative="1" as="geometry" />
        </mxCell>
        <mxCell id="Vp3_eGZHVUZD8heVCFpJ-2" value="&lt;font style=&quot;font-size: 16px;&quot;&gt;点击图标&lt;/font&gt;" style="rounded=1;whiteSpace=wrap;html=1;" vertex="1" parent="WIyWlLk6GJQsqaUBKTNV-1">
          <mxGeometry x="400" y="220" width="120" height="60" as="geometry" />
        </mxCell>
        <mxCell id="Vp3_eGZHVUZD8heVCFpJ-3" value="&lt;font style=&quot;font-size: 16px;&quot;&gt;查看宠物子类菜单&lt;/font&gt;" style="rounded=1;whiteSpace=wrap;html=1;" vertex="1" parent="WIyWlLk6GJQsqaUBKTNV-1">
          <mxGeometry x="580" y="60" width="170" height="60" as="geometry" />
        </mxCell>
        <mxCell id="Vp3_eGZHVUZD8heVCFpJ-4" value="&lt;font style=&quot;font-size: 16px;&quot;&gt;查看宠物大类详细信息&lt;/font&gt;" style="rounded=1;whiteSpace=wrap;html=1;" vertex="1" parent="WIyWlLk6GJQsqaUBKTNV-1">
          <mxGeometry x="580" y="220" width="170" height="60" as="geometry" />
        </mxCell>
        <mxCell id="Vp3_eGZHVUZD8heVCFpJ-8" style="edgeStyle=orthogonalEdgeStyle;rounded=0;orthogonalLoop=1;jettySize=auto;html=1;exitX=1;exitY=0.5;exitDx=0;exitDy=0;entryX=-0.022;entryY=0.644;entryDx=0;entryDy=0;entryPerimeter=0;" edge="1" parent="WIyWlLk6GJQsqaUBKTNV-1" source="Vp3_eGZHVUZD8heVCFpJ-0" target="Vp3_eGZHVUZD8heVCFpJ-2">
          <mxGeometry relative="1" as="geometry" />
        </mxCell>
      </root>
    </mxGraphModel>
  </diagram>
</mxfile>
